<svg width="48" height="48" viewBox="0 0 48 48" fill="none" xmlns="http://www.w3.org/2000/svg">
<path fill-rule="evenodd" clip-rule="evenodd" d="M24 48C37.2548 48 48 37.2548 48 24C48 10.7452 37.2548 0 24 0C10.7452 0 0 10.7452 0 24C0 37.2548 10.7452 48 24 48ZM12.8349 13.0933C12.9986 13.0294 13.1738 12.9977 13.3502 13.0001H34.6498C34.8262 12.9977 35.0014 13.0294 35.1651 13.0933C35.3288 13.1573 35.4777 13.2522 35.6034 13.3726C35.729 13.493 35.8288 13.6365 35.8968 13.7947C35.9649 13.9529 36 14.1227 36 14.2942C36 14.4657 35.9649 14.6355 35.8968 14.7937C35.8288 14.952 35.729 15.0954 35.6034 15.2158C35.4777 15.3362 35.3288 15.4312 35.1651 15.4951C35.0014 15.5591 34.8262 15.5908 34.6498 15.5883H13.3502C13.1738 15.5908 12.9986 15.5591 12.8349 15.4951C12.6712 15.4312 12.5223 15.3362 12.3966 15.2158C12.271 15.0954 12.1712 14.952 12.1032 14.7937C12.0351 14.6355 12 14.4657 12 14.2942C12 14.1227 12.0351 13.9529 12.1032 13.7947C12.1712 13.6365 12.271 13.493 12.3966 13.3726C12.5223 13.2522 12.6712 13.1573 12.8349 13.0933ZM14.6814 20.7647C14.6814 19.3502 15.8888 18.1765 17.3439 18.1765H30.6561C32.1112 18.1765 33.3186 19.3502 33.3186 20.7647V24.6471C33.3186 26.0616 32.1112 27.2353 30.6561 27.2353H30.2843L28.5111 32.4117H34.6498C34.8262 32.4092 35.0014 32.4409 35.1651 32.5049C35.3288 32.5688 35.4777 32.6637 35.6034 32.7842C35.729 32.9046 35.8288 33.048 35.8968 33.2063C35.9649 33.3645 36 33.5343 36 33.7058C36 33.8773 35.9649 34.0471 35.8968 34.2053C35.8288 34.3635 35.729 34.507 35.6034 34.6274C35.4777 34.7478 35.3288 34.8427 35.1651 34.9067C35.0014 34.9706 34.8262 35.0023 34.6498 34.9999H13.3502C13.1738 35.0023 12.9986 34.9706 12.8349 34.9067C12.6712 34.8427 12.5223 34.7478 12.3966 34.6274C12.271 34.507 12.1712 34.3635 12.1032 34.2053C12.0351 34.0471 12 33.8773 12 33.7058C12 33.5343 12.0351 33.3645 12.1032 33.2063C12.1712 33.048 12.271 32.9046 12.3966 32.7842C12.5223 32.6637 12.6712 32.5688 12.8349 32.5049C12.9986 32.4409 13.1738 32.4092 13.3502 32.4117H19.4889L17.7157 27.2353H17.3439C15.8888 27.2353 14.6814 26.0616 14.6814 24.6471V20.7647ZM30.6561 24.6471V20.7647H17.3439V24.6471H30.6561ZM25.703 32.4117L27.4763 27.2353H20.5237L22.297 32.4117H25.703Z" fill="#CC5E52"/>
</svg>
