<svg width="48" height="48" viewBox="0 0 48 48" fill="none" xmlns="http://www.w3.org/2000/svg">
<path fill-rule="evenodd" clip-rule="evenodd" d="M24 48C37.2548 48 48 37.2548 48 24C48 10.7452 37.2548 0 24 0C10.7452 0 0 10.7452 0 24C0 37.2548 10.7452 48 24 48ZM13.5833 14H34.25C35.6773 14 36.8333 15.156 36.8333 16.5833V32.0833C36.8333 33.5106 35.6773 34.6667 34.25 34.6667H13.5833C12.156 34.6667 11 33.5106 11 32.0833L11.0129 16.5833C11.0129 15.156 12.156 14 13.5833 14ZM13.5833 19.1667V32.0833H34.25V19.1667L23.9167 25.625L13.5833 19.1667ZM13.5833 16.5833L23.9167 23.0417L34.25 16.5833H13.5833Z" fill="white"/>
</svg>
