<svg width="48" height="48" viewBox="0 0 48 48" fill="none" xmlns="http://www.w3.org/2000/svg">
<path fill-rule="evenodd" clip-rule="evenodd" d="M24 48C37.2548 48 48 37.2548 48 24C48 10.7452 37.2548 0 24 0C10.7452 0 0 10.7452 0 24C0 37.2548 10.7452 48 24 48ZM24.1924 19.5751L24.1315 18.5716C23.9489 15.9707 25.5514 13.5952 28.0871 12.6737C29.0201 12.346 30.6023 12.305 31.6369 12.5918C32.0425 12.7147 32.8134 13.1242 33.3611 13.4928L34.355 14.1686L35.4504 13.8205C36.059 13.6361 36.8704 13.329 37.2355 13.1242C37.5803 12.9399 37.8846 12.8374 37.8846 12.8989C37.8846 13.247 37.1341 14.4348 36.5053 15.0901C35.6533 16.0117 35.8968 16.0936 37.6209 15.4792C38.6555 15.1311 38.6757 15.1311 38.4729 15.5202C38.3511 15.725 37.7223 16.4418 37.0529 17.097C35.9169 18.2234 35.8562 18.3463 35.8562 19.2883C35.8562 20.7423 35.1664 23.7732 34.4767 25.432C33.1988 28.5448 30.4603 31.7599 27.7219 33.3778C23.8678 35.651 18.7356 36.2243 14.415 34.8932C12.9748 34.4427 10.5 33.2958 10.5 33.0911C10.5 33.0296 11.2505 32.9477 12.1634 32.9273C14.0701 32.8863 15.9769 32.3538 17.5997 31.4118L18.6952 30.7565L17.4374 30.3265C15.6523 29.712 14.0498 28.299 13.6442 26.9679C13.5224 26.5379 13.563 26.5173 14.699 26.5173L15.8755 26.4969L14.8815 26.0259C13.705 25.432 12.6299 24.4285 12.1025 23.4045C11.717 22.6673 11.2303 20.8037 11.3723 20.6604C11.4128 20.599 11.8388 20.7218 12.3257 20.8856C13.7253 21.3976 13.9079 21.2747 13.0965 20.4146C11.5751 18.8583 11.1085 16.5441 11.8388 14.3529L12.1837 13.3699L13.5224 14.701C16.261 17.3838 19.4863 18.9812 23.1781 19.4522L24.1924 19.5751Z" fill="#C7D2DF"/>
</svg>
